<mxfile host="app.diagrams.net" modified="2024-03-11T11:32:32.950Z" agent="Mozilla/5.0 (Windows NT 10.0; Win64; x64) AppleWebKit/537.36 (KHTML, like Gecko) Chrome/122.0.0.0 Safari/537.36" etag="LYOaAspN_r7GzSvIWu4a" version="23.1.5" type="onedrive">
  <diagram name="PÃ¡gina-1" id="dBLILVgP2Mh8yOEqW_J6">
    <mxGraphModel grid="0" page="0" gridSize="9" guides="1" tooltips="1" connect="1" arrows="1" fold="1" pageScale="1" pageWidth="827" pageHeight="1169" background="#000000" math="0" shadow="0">
      <root>
        <mxCell id="0" />
        <mxCell id="1" parent="0" />
        <mxCell id="HKX-Zkw182bHUrJ0AyNo-4" value="" style="edgeStyle=orthogonalEdgeStyle;rounded=1;orthogonalLoop=1;jettySize=auto;html=1;labelBackgroundColor=none;strokeColor=#23445D;fontColor=default;" edge="1" parent="1" source="HKX-Zkw182bHUrJ0AyNo-1" target="HKX-Zkw182bHUrJ0AyNo-2">
          <mxGeometry relative="1" as="geometry" />
        </mxCell>
        <mxCell id="HKX-Zkw182bHUrJ0AyNo-6" value="" style="edgeStyle=orthogonalEdgeStyle;rounded=1;orthogonalLoop=1;jettySize=auto;html=1;labelBackgroundColor=none;strokeColor=#23445D;fontColor=default;" edge="1" parent="1" source="HKX-Zkw182bHUrJ0AyNo-1" target="HKX-Zkw182bHUrJ0AyNo-5">
          <mxGeometry relative="1" as="geometry" />
        </mxCell>
        <mxCell id="HKX-Zkw182bHUrJ0AyNo-9" value="" style="edgeStyle=orthogonalEdgeStyle;rounded=1;orthogonalLoop=1;jettySize=auto;html=1;labelBackgroundColor=none;strokeColor=#23445D;fontColor=default;" edge="1" parent="1" source="HKX-Zkw182bHUrJ0AyNo-1" target="HKX-Zkw182bHUrJ0AyNo-7">
          <mxGeometry relative="1" as="geometry" />
        </mxCell>
        <mxCell id="HKX-Zkw182bHUrJ0AyNo-1" value="Initialization and configuration (RunRT.py)" style="rounded=1;whiteSpace=wrap;html=1;labelBackgroundColor=none;fillColor=#182E3E;strokeColor=#FFFFFF;fontColor=#FFFFFF;" vertex="1" parent="1">
          <mxGeometry x="140" y="30" width="120" height="60" as="geometry" />
        </mxCell>
        <mxCell id="HKX-Zkw182bHUrJ0AyNo-12" value="" style="edgeStyle=orthogonalEdgeStyle;rounded=1;orthogonalLoop=1;jettySize=auto;html=1;labelBackgroundColor=none;strokeColor=#23445D;fontColor=default;" edge="1" parent="1" source="HKX-Zkw182bHUrJ0AyNo-2" target="HKX-Zkw182bHUrJ0AyNo-7">
          <mxGeometry relative="1" as="geometry" />
        </mxCell>
        <mxCell id="HKX-Zkw182bHUrJ0AyNo-2" value="Read the input file (INPUT)" style="rounded=1;whiteSpace=wrap;html=1;labelBackgroundColor=none;fillColor=#182E3E;strokeColor=#FFFFFF;fontColor=#FFFFFF;" vertex="1" parent="1">
          <mxGeometry x="340" y="135" width="120" height="50" as="geometry" />
        </mxCell>
        <mxCell id="HKX-Zkw182bHUrJ0AyNo-14" value="" style="edgeStyle=orthogonalEdgeStyle;rounded=1;orthogonalLoop=1;jettySize=auto;html=1;labelBackgroundColor=none;strokeColor=#23445D;fontColor=default;" edge="1" parent="1" source="HKX-Zkw182bHUrJ0AyNo-5" target="HKX-Zkw182bHUrJ0AyNo-7">
          <mxGeometry relative="1" as="geometry" />
        </mxCell>
        <mxCell id="HKX-Zkw182bHUrJ0AyNo-5" value="Graphic interface to select mode of use and visualization of the results (matplotlib)" style="rounded=1;whiteSpace=wrap;html=1;labelBackgroundColor=none;fillColor=#182E3E;strokeColor=#FFFFFF;fontColor=#FFFFFF;" vertex="1" parent="1">
          <mxGeometry x="-80" y="100" width="120" height="85" as="geometry" />
        </mxCell>
        <mxCell id="HKX-Zkw182bHUrJ0AyNo-19" value="" style="edgeStyle=orthogonalEdgeStyle;rounded=1;orthogonalLoop=1;jettySize=auto;html=1;labelBackgroundColor=none;strokeColor=#23445D;fontColor=default;" edge="1" parent="1" source="HKX-Zkw182bHUrJ0AyNo-7" target="HKX-Zkw182bHUrJ0AyNo-16">
          <mxGeometry relative="1" as="geometry">
            <Array as="points">
              <mxPoint x="200" y="220" />
              <mxPoint x="260" y="220" />
            </Array>
          </mxGeometry>
        </mxCell>
        <mxCell id="HKX-Zkw182bHUrJ0AyNo-7" value="Run the subprograms in Fortran:" style="rounded=1;whiteSpace=wrap;html=1;labelBackgroundColor=none;fillColor=#182E3E;strokeColor=#FFFFFF;fontColor=#FFFFFF;" vertex="1" parent="1">
          <mxGeometry x="140" y="130" width="120" height="60" as="geometry" />
        </mxCell>
        <mxCell id="HKX-Zkw182bHUrJ0AyNo-34" value="" style="edgeStyle=orthogonalEdgeStyle;rounded=1;orthogonalLoop=1;jettySize=auto;html=1;labelBackgroundColor=none;strokeColor=#23445D;fontColor=default;" edge="1" parent="1" source="HKX-Zkw182bHUrJ0AyNo-8" target="HKX-Zkw182bHUrJ0AyNo-26">
          <mxGeometry relative="1" as="geometry" />
        </mxCell>
        <mxCell id="HKX-Zkw182bHUrJ0AyNo-8" value="Atmospheric modeling" style="rounded=1;whiteSpace=wrap;html=1;labelBackgroundColor=none;fillColor=#182E3E;strokeColor=#FFFFFF;fontColor=#FFFFFF;" vertex="1" parent="1">
          <mxGeometry x="-80" y="240" width="120" height="60" as="geometry" />
        </mxCell>
        <mxCell id="HKX-Zkw182bHUrJ0AyNo-35" value="" style="edgeStyle=orthogonalEdgeStyle;rounded=1;orthogonalLoop=1;jettySize=auto;html=1;labelBackgroundColor=none;strokeColor=#23445D;fontColor=default;" edge="1" parent="1" source="HKX-Zkw182bHUrJ0AyNo-15" target="HKX-Zkw182bHUrJ0AyNo-27">
          <mxGeometry relative="1" as="geometry" />
        </mxCell>
        <mxCell id="HKX-Zkw182bHUrJ0AyNo-15" value="Spectral calculus" style="rounded=1;whiteSpace=wrap;html=1;labelBackgroundColor=none;fillColor=#182E3E;strokeColor=#FFFFFF;fontColor=#FFFFFF;" vertex="1" parent="1">
          <mxGeometry x="60" y="240" width="120" height="60" as="geometry" />
        </mxCell>
        <mxCell id="HKX-Zkw182bHUrJ0AyNo-36" value="" style="edgeStyle=orthogonalEdgeStyle;rounded=1;orthogonalLoop=1;jettySize=auto;html=1;labelBackgroundColor=none;strokeColor=#23445D;fontColor=default;" edge="1" parent="1" source="HKX-Zkw182bHUrJ0AyNo-16" target="HKX-Zkw182bHUrJ0AyNo-28">
          <mxGeometry relative="1" as="geometry" />
        </mxCell>
        <mxCell id="HKX-Zkw182bHUrJ0AyNo-16" value="Absorption and scattering of gases" style="rounded=1;whiteSpace=wrap;html=1;labelBackgroundColor=none;fillColor=#182E3E;strokeColor=#FFFFFF;fontColor=#FFFFFF;" vertex="1" parent="1">
          <mxGeometry x="200" y="240" width="120" height="60" as="geometry" />
        </mxCell>
        <mxCell id="HKX-Zkw182bHUrJ0AyNo-40" value="" style="edgeStyle=orthogonalEdgeStyle;rounded=1;orthogonalLoop=1;jettySize=auto;html=1;labelBackgroundColor=none;strokeColor=#23445D;fontColor=default;" edge="1" parent="1" source="HKX-Zkw182bHUrJ0AyNo-17" target="HKX-Zkw182bHUrJ0AyNo-29">
          <mxGeometry relative="1" as="geometry" />
        </mxCell>
        <mxCell id="HKX-Zkw182bHUrJ0AyNo-17" value="Radiative transfer" style="rounded=1;whiteSpace=wrap;html=1;labelBackgroundColor=none;fillColor=#182E3E;strokeColor=#FFFFFF;fontColor=#FFFFFF;" vertex="1" parent="1">
          <mxGeometry x="340" y="240" width="120" height="60" as="geometry" />
        </mxCell>
        <mxCell id="HKX-Zkw182bHUrJ0AyNo-20" value="" style="edgeStyle=orthogonalEdgeStyle;rounded=1;orthogonalLoop=1;jettySize=auto;html=1;exitX=0.5;exitY=1;exitDx=0;exitDy=0;entryX=0.5;entryY=0;entryDx=0;entryDy=0;labelBackgroundColor=none;strokeColor=#23445D;fontColor=default;" edge="1" parent="1" source="HKX-Zkw182bHUrJ0AyNo-7" target="HKX-Zkw182bHUrJ0AyNo-17">
          <mxGeometry relative="1" as="geometry">
            <mxPoint x="220" y="202.5" as="sourcePoint" />
            <mxPoint x="280" y="252.5" as="targetPoint" />
            <Array as="points">
              <mxPoint x="200" y="200" />
              <mxPoint x="400" y="200" />
            </Array>
          </mxGeometry>
        </mxCell>
        <mxCell id="HKX-Zkw182bHUrJ0AyNo-22" value="" style="edgeStyle=orthogonalEdgeStyle;rounded=1;orthogonalLoop=1;jettySize=auto;html=1;entryX=0.5;entryY=0;entryDx=0;entryDy=0;labelBackgroundColor=none;strokeColor=#23445D;fontColor=default;" edge="1" parent="1" target="HKX-Zkw182bHUrJ0AyNo-15">
          <mxGeometry relative="1" as="geometry">
            <mxPoint x="200" y="190" as="sourcePoint" />
            <mxPoint x="270" y="250" as="targetPoint" />
            <Array as="points">
              <mxPoint x="200" y="220" />
              <mxPoint x="120" y="220" />
            </Array>
          </mxGeometry>
        </mxCell>
        <mxCell id="HKX-Zkw182bHUrJ0AyNo-24" value="" style="edgeStyle=orthogonalEdgeStyle;rounded=1;orthogonalLoop=1;jettySize=auto;html=1;exitX=0.5;exitY=1;exitDx=0;exitDy=0;entryX=0.5;entryY=0;entryDx=0;entryDy=0;labelBackgroundColor=none;strokeColor=#23445D;fontColor=default;" edge="1" parent="1" target="HKX-Zkw182bHUrJ0AyNo-8">
          <mxGeometry relative="1" as="geometry">
            <mxPoint x="200" y="190" as="sourcePoint" />
            <mxPoint x="-20" y="230" as="targetPoint" />
            <Array as="points">
              <mxPoint x="200" y="200" />
              <mxPoint x="-20" y="200" />
            </Array>
          </mxGeometry>
        </mxCell>
        <mxCell id="HKX-Zkw182bHUrJ0AyNo-42" value="" style="edgeStyle=orthogonalEdgeStyle;rounded=1;orthogonalLoop=1;jettySize=auto;html=1;labelBackgroundColor=none;strokeColor=#23445D;fontColor=default;" edge="1" parent="1" source="HKX-Zkw182bHUrJ0AyNo-26" target="HKX-Zkw182bHUrJ0AyNo-41">
          <mxGeometry relative="1" as="geometry">
            <Array as="points">
              <mxPoint x="-20" y="430" />
              <mxPoint x="200" y="430" />
            </Array>
          </mxGeometry>
        </mxCell>
        <mxCell id="HKX-Zkw182bHUrJ0AyNo-26" value="atms.f&lt;br&gt;taucloud.f&lt;br&gt;tauaero.f" style="rounded=1;whiteSpace=wrap;html=1;labelBackgroundColor=none;fillColor=#182E3E;strokeColor=#FFFFFF;fontColor=#FFFFFF;" vertex="1" parent="1">
          <mxGeometry x="-80" y="330" width="120" height="60" as="geometry" />
        </mxCell>
        <mxCell id="HKX-Zkw182bHUrJ0AyNo-43" value="" style="edgeStyle=orthogonalEdgeStyle;rounded=1;orthogonalLoop=1;jettySize=auto;html=1;labelBackgroundColor=none;strokeColor=#23445D;fontColor=default;" edge="1" parent="1" source="HKX-Zkw182bHUrJ0AyNo-27" target="HKX-Zkw182bHUrJ0AyNo-41">
          <mxGeometry relative="1" as="geometry">
            <Array as="points">
              <mxPoint x="120" y="430" />
              <mxPoint x="200" y="430" />
            </Array>
          </mxGeometry>
        </mxCell>
        <mxCell id="HKX-Zkw182bHUrJ0AyNo-27" value="spectra.f" style="rounded=1;whiteSpace=wrap;html=1;labelBackgroundColor=none;fillColor=#182E3E;strokeColor=#FFFFFF;fontColor=#FFFFFF;" vertex="1" parent="1">
          <mxGeometry x="60" y="330" width="120" height="60" as="geometry" />
        </mxCell>
        <mxCell id="HKX-Zkw182bHUrJ0AyNo-44" value="" style="edgeStyle=orthogonalEdgeStyle;rounded=1;orthogonalLoop=1;jettySize=auto;html=1;labelBackgroundColor=none;strokeColor=#23445D;fontColor=default;" edge="1" parent="1" source="HKX-Zkw182bHUrJ0AyNo-28" target="HKX-Zkw182bHUrJ0AyNo-41">
          <mxGeometry relative="1" as="geometry">
            <Array as="points">
              <mxPoint x="260" y="430" />
              <mxPoint x="200" y="430" />
            </Array>
          </mxGeometry>
        </mxCell>
        <mxCell id="HKX-Zkw182bHUrJ0AyNo-28" value="taugas.f" style="rounded=1;whiteSpace=wrap;html=1;labelBackgroundColor=none;fillColor=#182E3E;strokeColor=#FFFFFF;fontColor=#FFFFFF;" vertex="1" parent="1">
          <mxGeometry x="200" y="330" width="120" height="60" as="geometry" />
        </mxCell>
        <mxCell id="HKX-Zkw182bHUrJ0AyNo-45" value="" style="edgeStyle=orthogonalEdgeStyle;rounded=1;orthogonalLoop=1;jettySize=auto;html=1;labelBackgroundColor=none;strokeColor=#23445D;fontColor=default;" edge="1" parent="1" source="HKX-Zkw182bHUrJ0AyNo-29" target="HKX-Zkw182bHUrJ0AyNo-41">
          <mxGeometry relative="1" as="geometry">
            <Array as="points">
              <mxPoint x="400" y="430" />
              <mxPoint x="200" y="430" />
            </Array>
          </mxGeometry>
        </mxCell>
        <mxCell id="HKX-Zkw182bHUrJ0AyNo-29" value="disort.f" style="rounded=1;whiteSpace=wrap;html=1;labelBackgroundColor=none;fillColor=#182E3E;strokeColor=#FFFFFF;fontColor=#FFFFFF;" vertex="1" parent="1">
          <mxGeometry x="340" y="330" width="120" height="60" as="geometry" />
        </mxCell>
        <mxCell id="HKX-Zkw182bHUrJ0AyNo-41" value="Recopilation and processing of the results (RunRT.py)" style="rounded=1;whiteSpace=wrap;html=1;labelBackgroundColor=none;fillColor=#182E3E;strokeColor=#FFFFFF;fontColor=#FFFFFF;" vertex="1" parent="1">
          <mxGeometry x="140" y="450" width="120" height="60" as="geometry" />
        </mxCell>
        <mxCell id="HKX-Zkw182bHUrJ0AyNo-47" value="" style="endArrow=classic;html=1;rounded=1;entryX=0;entryY=0.5;entryDx=0;entryDy=0;exitX=0;exitY=0.5;exitDx=0;exitDy=0;labelBackgroundColor=none;strokeColor=#23445D;fontColor=default;" edge="1" parent="1" source="HKX-Zkw182bHUrJ0AyNo-41" target="HKX-Zkw182bHUrJ0AyNo-5">
          <mxGeometry width="50" height="50" relative="1" as="geometry">
            <mxPoint x="90" y="370" as="sourcePoint" />
            <mxPoint x="140" y="320" as="targetPoint" />
            <Array as="points">
              <mxPoint x="-130" y="480" />
              <mxPoint x="-130" y="143" />
            </Array>
          </mxGeometry>
        </mxCell>
      </root>
    </mxGraphModel>
  </diagram>
</mxfile>
